<svg width="32" height="26" viewBox="0 0 32 26" fill="none" xmlns="http://www.w3.org/2000/svg">
<g clip-path="url(#clip0_993_388)">
<path d="M19.9277 5.74951H27.9263V8.04639H19.9277V5.74951Z" fill="#5D21D1"/>
<path d="M19.9277 11.4917H27.9263V13.7886H19.9277V11.4917Z" fill="#5D21D1"/>
<path d="M19.9277 17.2339H27.9263V19.5308H19.9277V17.2339Z" fill="#5D21D1"/>
<path d="M30.2119 0.00732422H2.78824C2.18232 0.00793229 1.6014 0.25012 1.17295 0.680736C0.744502 1.11135 0.503535 1.69522 0.50293 2.3042V22.9761C0.503535 23.5851 0.744502 24.169 1.17295 24.5996C1.6014 25.0302 2.18232 25.2724 2.78824 25.273H30.2119C30.8177 25.2721 31.3985 25.0298 31.8269 24.5992C32.2553 24.1687 32.4963 23.585 32.4972 22.9761V2.3042C32.4966 1.69522 32.2557 1.11135 31.8272 0.680736C31.3988 0.25012 30.8178 0.00793229 30.2119 0.00732422ZM2.78824 2.3042H15.3574V22.9761H2.78824V2.3042ZM17.6427 22.9761V2.3042H30.2119L30.2142 22.9761H17.6427Z" fill="#5D21D1"/>
</g>
<defs>
<clipPath id="clip0_993_388">
<rect width="32" height="25.28" fill="white" transform="translate(0.5)"/>
</clipPath>
</defs>
</svg>
