<svg width="30" height="30" viewBox="0 0 30 30" fill="none" xmlns="http://www.w3.org/2000/svg">
<path d="M6.25 13.7499H21.075L16.5375 8.29986C16.3253 8.04459 16.2232 7.71548 16.2537 7.38495C16.2842 7.05442 16.4447 6.74953 16.7 6.53736C16.9553 6.32518 17.2844 6.22311 17.6149 6.25358C17.9454 6.28406 18.2503 6.44459 18.4625 6.69986L24.7125 14.1999C24.7545 14.2595 24.7922 14.3222 24.825 14.3874C24.825 14.4499 24.825 14.4874 24.9125 14.5499C24.9692 14.6932 24.9988 14.8457 25 14.9999C24.9988 15.154 24.9692 15.3065 24.9125 15.4499C24.9125 15.5124 24.9125 15.5499 24.825 15.6124C24.7922 15.6775 24.7545 15.7402 24.7125 15.7999L18.4625 23.2999C18.345 23.441 18.1978 23.5544 18.0314 23.6322C17.8651 23.71 17.6836 23.7502 17.5 23.7499C17.2079 23.7504 16.9249 23.6487 16.7 23.4624C16.5734 23.3574 16.4688 23.2285 16.3921 23.0831C16.3154 22.9377 16.2682 22.7785 16.2531 22.6148C16.238 22.4511 16.2553 22.286 16.3041 22.129C16.3529 21.972 16.4322 21.8262 16.5375 21.6999L21.075 16.2499H6.25C5.91848 16.2499 5.60054 16.1182 5.36612 15.8837C5.13169 15.6493 5 15.3314 5 14.9999C5 14.6683 5.13169 14.3504 5.36612 14.116C5.60054 13.8816 5.91848 13.7499 6.25 13.7499Z" fill="white"/>
</svg>
